<svg width="104" height="104" viewBox="0 0 104 104" fill="none" xmlns="http://www.w3.org/2000/svg">
<g clip-path="url(#clip0_2_159)">
<path d="M52 101.263C79.2073 101.263 101.263 79.2073 101.263 52C101.263 24.7927 79.2073 2.73685 52 2.73685C24.7927 2.73685 2.73682 24.7927 2.73682 52C2.73682 79.2073 24.7927 101.263 52 101.263Z" stroke="white" stroke-width="6"/>
<path opacity="0.8" d="M75.2632 54.3701L42.4211 73.331C42.005 73.5712 41.5331 73.6976 41.0527 73.6976C40.5722 73.6976 40.1003 73.5712 39.6842 73.331C39.2682 73.0908 38.9227 72.7453 38.6825 72.3292C38.4423 71.9132 38.3158 71.4413 38.3158 70.9608V33.0392C38.3158 32.5587 38.4423 32.0868 38.6825 31.6708C38.9227 31.2547 39.2682 30.9092 39.6842 30.669C40.1003 30.4288 40.5722 30.3024 41.0527 30.3024C41.5331 30.3024 42.005 30.4288 42.4211 30.6691L75.2632 49.6299C75.6792 49.8701 76.0246 50.2156 76.2648 50.6316C76.505 51.0477 76.6315 51.5196 76.6315 52C76.6315 52.4804 76.505 52.9523 76.2648 53.3684C76.0246 53.7844 75.6792 54.1299 75.2632 54.3701Z" fill="white" stroke="white" stroke-width="6"/>
</g>
<defs>
<clipPath id="clip0_2_159">
<rect width="104" height="104" fill="white"/>
</clipPath>
</defs>
</svg>
